<mxfile host="app.diagrams.net" agent="Mozilla/5.0 (Macintosh; Intel Mac OS X 10_15_7) AppleWebKit/537.36 (KHTML, like Gecko) Chrome/131.0.0.0 Safari/537.36" version="26.0.16">
  <diagram name="第1頁" id="LpLdRGVmJxK6KshesvKD">
    <mxGraphModel dx="1849" dy="818" grid="1" gridSize="10" guides="1" tooltips="1" connect="1" arrows="1" fold="1" page="1" pageScale="1" pageWidth="827" pageHeight="1169" math="0" shadow="0">
      <root>
        <mxCell id="0" />
        <mxCell id="1" parent="0" />
        <mxCell id="vKqKOulp7S16YsBjdaTP-3" style="edgeStyle=orthogonalEdgeStyle;rounded=0;orthogonalLoop=1;jettySize=auto;html=1;exitX=0.5;exitY=1;exitDx=0;exitDy=0;" edge="1" parent="1" source="vKqKOulp7S16YsBjdaTP-1" target="vKqKOulp7S16YsBjdaTP-2">
          <mxGeometry relative="1" as="geometry" />
        </mxCell>
        <mxCell id="vKqKOulp7S16YsBjdaTP-1" value="MQTT Clients&lt;div&gt;&amp;nbsp;(TLS 8883 + Certificate)&lt;/div&gt;" style="rounded=0;whiteSpace=wrap;html=1;" vertex="1" parent="1">
          <mxGeometry x="370" y="60" width="160" height="60" as="geometry" />
        </mxCell>
        <mxCell id="vKqKOulp7S16YsBjdaTP-5" style="edgeStyle=orthogonalEdgeStyle;rounded=0;orthogonalLoop=1;jettySize=auto;html=1;exitX=0.5;exitY=1;exitDx=0;exitDy=0;entryX=0.5;entryY=0;entryDx=0;entryDy=0;" edge="1" parent="1" source="vKqKOulp7S16YsBjdaTP-2" target="vKqKOulp7S16YsBjdaTP-4">
          <mxGeometry relative="1" as="geometry" />
        </mxCell>
        <mxCell id="vKqKOulp7S16YsBjdaTP-2" value="mqtt.kapturehome.com" style="text;html=1;align=center;verticalAlign=middle;whiteSpace=wrap;rounded=0;" vertex="1" parent="1">
          <mxGeometry x="360" y="160" width="180" height="30" as="geometry" />
        </mxCell>
        <mxCell id="vKqKOulp7S16YsBjdaTP-4" value="AWS NLB&amp;nbsp;&lt;div&gt;(TCP 8883)&lt;/div&gt;" style="rounded=0;whiteSpace=wrap;html=1;" vertex="1" parent="1">
          <mxGeometry x="390" y="220" width="120" height="60" as="geometry" />
        </mxCell>
        <mxCell id="vKqKOulp7S16YsBjdaTP-6" value="HiveMQ Broker 1&lt;div&gt;(TCP 8883)&lt;/div&gt;&lt;div&gt;(keystore/truststore&lt;span style=&quot;background-color: transparent; color: light-dark(rgb(0, 0, 0), rgb(255, 255, 255));&quot;&gt;)&lt;/span&gt;&lt;/div&gt;" style="rounded=0;whiteSpace=wrap;html=1;" vertex="1" parent="1">
          <mxGeometry x="283.5" y="370" width="120" height="60" as="geometry" />
        </mxCell>
        <mxCell id="vKqKOulp7S16YsBjdaTP-7" value="HiveMQ Broker 2&lt;div&gt;(TCP 8883)&lt;/div&gt;&lt;div&gt;(keystore/truststore&lt;span style=&quot;color: light-dark(rgb(0, 0, 0), rgb(255, 255, 255)); background-color: transparent;&quot;&gt;)&lt;/span&gt;&lt;/div&gt;" style="rounded=0;whiteSpace=wrap;html=1;" vertex="1" parent="1">
          <mxGeometry x="499.5" y="370" width="120" height="60" as="geometry" />
        </mxCell>
        <mxCell id="vKqKOulp7S16YsBjdaTP-8" value="" style="endArrow=none;dashed=1;html=1;dashPattern=1 3;strokeWidth=2;rounded=0;entryX=0;entryY=0.5;entryDx=0;entryDy=0;" edge="1" parent="1" target="vKqKOulp7S16YsBjdaTP-7">
          <mxGeometry width="50" height="50" relative="1" as="geometry">
            <mxPoint x="409.5" y="400" as="sourcePoint" />
            <mxPoint x="459.5" y="350" as="targetPoint" />
          </mxGeometry>
        </mxCell>
        <mxCell id="vKqKOulp7S16YsBjdaTP-9" value="Cluster&amp;nbsp;&lt;div&gt;7800&lt;/div&gt;" style="text;html=1;align=center;verticalAlign=middle;resizable=0;points=[];autosize=1;strokeColor=none;fillColor=none;" vertex="1" parent="1">
          <mxGeometry x="419.5" y="360" width="60" height="40" as="geometry" />
        </mxCell>
        <mxCell id="vKqKOulp7S16YsBjdaTP-11" value="" style="endArrow=classic;html=1;rounded=0;exitX=0.25;exitY=1;exitDx=0;exitDy=0;entryX=0.5;entryY=0;entryDx=0;entryDy=0;" edge="1" parent="1" source="vKqKOulp7S16YsBjdaTP-4" target="vKqKOulp7S16YsBjdaTP-6">
          <mxGeometry width="50" height="50" relative="1" as="geometry">
            <mxPoint x="310" y="360" as="sourcePoint" />
            <mxPoint x="360" y="310" as="targetPoint" />
          </mxGeometry>
        </mxCell>
        <mxCell id="vKqKOulp7S16YsBjdaTP-12" value="" style="endArrow=classic;html=1;rounded=0;exitX=0.75;exitY=1;exitDx=0;exitDy=0;entryX=0.5;entryY=0;entryDx=0;entryDy=0;" edge="1" parent="1" source="vKqKOulp7S16YsBjdaTP-4" target="vKqKOulp7S16YsBjdaTP-7">
          <mxGeometry width="50" height="50" relative="1" as="geometry">
            <mxPoint x="478" y="340" as="sourcePoint" />
            <mxPoint x="400" y="420" as="targetPoint" />
          </mxGeometry>
        </mxCell>
        <mxCell id="vKqKOulp7S16YsBjdaTP-21" style="edgeStyle=orthogonalEdgeStyle;rounded=0;orthogonalLoop=1;jettySize=auto;html=1;exitX=0.5;exitY=1;exitDx=0;exitDy=0;entryX=0.5;entryY=0;entryDx=0;entryDy=0;" edge="1" parent="1" source="vKqKOulp7S16YsBjdaTP-13" target="vKqKOulp7S16YsBjdaTP-18">
          <mxGeometry relative="1" as="geometry" />
        </mxCell>
        <mxCell id="vKqKOulp7S16YsBjdaTP-13" value="Security Extension&amp;nbsp;(Client Validation by CN)" style="rounded=1;whiteSpace=wrap;html=1;" vertex="1" parent="1">
          <mxGeometry x="280.5" y="480" width="338" height="30" as="geometry" />
        </mxCell>
        <mxCell id="vKqKOulp7S16YsBjdaTP-18" value="Grant topic Permissions to MQTT Clients" style="rounded=1;whiteSpace=wrap;html=1;" vertex="1" parent="1">
          <mxGeometry x="280.5" y="570" width="338" height="30" as="geometry" />
        </mxCell>
        <mxCell id="vKqKOulp7S16YsBjdaTP-19" style="edgeStyle=orthogonalEdgeStyle;rounded=0;orthogonalLoop=1;jettySize=auto;html=1;exitX=0.5;exitY=1;exitDx=0;exitDy=0;entryX=0.186;entryY=0.1;entryDx=0;entryDy=0;entryPerimeter=0;" edge="1" parent="1" source="vKqKOulp7S16YsBjdaTP-6" target="vKqKOulp7S16YsBjdaTP-13">
          <mxGeometry relative="1" as="geometry" />
        </mxCell>
        <mxCell id="vKqKOulp7S16YsBjdaTP-20" style="edgeStyle=orthogonalEdgeStyle;rounded=0;orthogonalLoop=1;jettySize=auto;html=1;exitX=0.5;exitY=1;exitDx=0;exitDy=0;entryX=0.828;entryY=0.133;entryDx=0;entryDy=0;entryPerimeter=0;" edge="1" parent="1" source="vKqKOulp7S16YsBjdaTP-7" target="vKqKOulp7S16YsBjdaTP-13">
          <mxGeometry relative="1" as="geometry" />
        </mxCell>
      </root>
    </mxGraphModel>
  </diagram>
</mxfile>
